<svg height="512.00005pt" viewBox="0 0 512.00005 512.00005" width="512.00005pt" xmlns="http://www.w3.org/2000/svg"><path d="m512 229.515625v256c.007812 7.027344-2.777344 13.769531-7.746094 18.738281s-11.710937 7.753906-18.738281 7.746094h-459.03125c-7.027344.007812-13.769531-2.777344-18.738281-7.746094s-7.7539065-11.710937-7.746094-18.738281v-256c15.976562 0 15.976562-17.652344 31.957031-17.652344 5.398438.03125 10.507813 2.457031 13.945313 6.621094l-1.765625 2.207031 24.011719 103.898438c1.492187 6.628906 6.691406 11.792968 13.332031 13.242187l56.140625 12.535157c7.441406 1.613281 12.980468 7.867187 13.683594 15.449218l6.710937 66.46875c.511719 5.714844 3.816406 10.804688 8.824219 13.597656l43.785156 25.070313c3.15625 1.808594 6.800781 2.578125 10.417969 2.207031 3.242187-.269531 6.335937-1.464844 8.914062-3.445312l55.96875-41.929688c3.441407-2.644531 5.820313-6.433594 6.707031-10.683594l5.210938-25.953124c1.417969-6.980469 6.875-12.4375 13.859375-13.855469l67.617187-13.507813c5.691407-1.171875 10.445313-5.066406 12.710938-10.417968l19.953125-46.519532c1.871094-4.300781 5.359375-7.695312 9.710937-9.445312l28.953126-11.566406c5.257812-2.109376 9.195312-6.601563 10.59375-12.09375l15.359374-61.617188c1.109376-.179688 2.230469-.269531 3.355469-.261719 15.976563 0 15.976563 17.652344 32.042969 17.652344zm0 0" fill="#4482c3"/><path d="m512 203.035156v282.480469c.007812 7.027344-2.777344 13.769531-7.746094 18.738281s-11.710937 7.753906-18.738281 7.746094h-459.03125c-7.027344.007812-13.769531-2.777344-18.738281-7.746094s-7.7539065-11.710937-7.746094-18.738281v-282.480469c15.976562 0 15.976562-17.65625 31.957031-17.65625 15.976563 0 15.976563 17.65625 32.042969 17.65625 15.976562 0 15.976562-17.65625 31.957031-17.65625 15.976563 0 15.976563 17.65625 31.953125 17.65625 15.980469 0 15.980469-17.65625 31.957032-17.65625 15.976562 0 15.976562 17.65625 31.957031 17.65625 16.066406 0 16.066406-17.65625 32.042969-17.65625 15.976562 0 15.976562 17.65625 31.957031 17.65625 15.976562 0 15.976562-17.65625 32.042969-17.65625 15.976562 0 15.976562 17.65625 31.957031 17.65625 16.066406 0 16.066406-17.65625 32.042969-17.65625 15.976562 0 15.976562 17.65625 31.957031 17.65625 16.066406 0 16.066406-17.65625 32.042969-17.65625 15.976562 0 15.976562 17.65625 32.042968 17.65625 15.980469 0 15.980469-17.65625 32.046875-17.65625 15.976563 0 15.976563 17.65625 32.042969 17.65625zm0 0" fill="#4482c3"/><path d="m512 26.484375v203.03125c-16.066406 0-16.066406-17.652344-32.042969-17.652344-16.066406 0-16.066406 17.652344-32.046875 17.652344-16.066406 0-16.066406-17.652344-32.042968-17.652344-15.976563 0-15.976563 17.652344-32.042969 17.652344-15.980469 0-15.980469-17.652344-31.957031-17.652344-15.976563 0-15.976563 17.652344-32.042969 17.652344-15.980469 0-15.980469-17.652344-31.957031-17.652344-16.066407 0-16.066407 17.652344-32.042969 17.652344-15.980469 0-15.980469-17.652344-31.957031-17.652344-15.976563 0-15.976563 17.652344-32.042969 17.652344-15.980469 0-15.980469-17.652344-31.957031-17.652344-15.976563 0-15.976563 17.652344-31.957032 17.652344-15.976562 0-15.976562-17.652344-31.953125-17.652344-15.980469 0-15.980469 17.652344-31.957031 17.652344-16.066406 0-16.066406-17.652344-32.042969-17.652344-15.980469 0-15.980469 17.652344-31.957031 17.652344v-203.03125c-.0078125-7.027344 2.777344-13.769531 7.746094-18.738281s11.710937-7.7539065 18.738281-7.746094h459.03125c7.027344-.0078125 13.769531 2.777344 18.738281 7.746094s7.753906 11.710937 7.746094 18.738281zm0 0" fill="#b0d3f0"/><path d="m476.601562 212.125-15.359374 61.617188c-1.398438 5.492187-5.335938 9.984374-10.59375 12.09375l-28.953126 11.566406c-4.351562 1.75-7.839843 5.144531-9.710937 9.445312l-19.953125 46.519532c-2.265625 5.351562-7.019531 9.246093-12.710938 10.417968l-67.617187 13.507813c-6.984375 1.417969-12.441406 6.875-13.859375 13.855469l-5.210938 25.953124c-.886718 4.25-3.265624 8.039063-6.707031 10.683594l-55.96875 41.929688c-2.578125 1.980468-5.671875 3.175781-8.914062 3.445312l7.589843-83.773437c.523438-6.089844-2.109374-12.015625-6.972656-15.714844l-20.390625-15.273437c-4.433593-3.34375-7.042969-8.570313-7.0625-14.121094v-34.164063c-.007812-6.183593-3.257812-11.914062-8.5625-15.09375l-23.921875-14.390625c-6.890625-4.101562-10.152344-12.328125-7.945312-20.039062l13.503906-47.140625c1.347656.605469 2.597656 1.410156 3.710938 2.386719 6.355468 5.207031 9.707031-12.800782 20.832031-12.800782 16.066406 0 16.066406-17.65625 32.042969-17.65625 15.976562 0 15.976562 17.65625 31.957031 17.65625.824219-.011718 1.652343-.070312 2.472656-.175781 13.59375-1.679687 14.386719-17.480469 29.570313-17.480469 15.976562 0 15.976562 17.65625 31.957031 17.65625 16.066406 0 16.066406-17.65625 32.042969-17.65625 15.976562 0 15.976562 17.65625 31.957031 17.65625 16.066406 0 16.066406-17.65625 32.042969-17.65625 15.976562 0 15.976562 17.65625 32.042968 17.65625 13.773438 0 15.625 13.417969 26.132813 9.796875.835937-.285156 1.691406-.523437 2.558593-.707031zm0 0" fill="#35495e"/><path d="m246.289062 389.386719-25.246093 83.773437c-3.617188.371094-7.261719-.398437-10.417969-2.207031l-43.785156-25.070313c-5.007813-2.792968-8.3125-7.882812-8.824219-13.597656l-6.710937-66.46875c-.703126-7.582031-6.242188-13.835937-13.683594-15.449218l-56.140625-12.535157c-6.640625-1.449219-11.839844-6.613281-13.332031-13.242187l-24.011719-103.898438 1.765625-2.207031c4.855468 5.03125 8.742187-6.621094 18.097656-6.621094 15.976562 0 15.976562-17.65625 31.957031-17.65625 15.976563 0 15.976563 17.65625 31.953125 17.65625 15.980469 0 7.152344-8.828125 23.128906-8.828125 11.472657 2.890625 22.785157 6.367188 33.898438 10.414063l-13.503906 47.140625c-2.210938 7.710937 1.054687 15.9375 7.941406 20.039062l23.925781 14.390625c5.304688 3.179688 8.550781 8.910157 8.5625 15.09375v34.164063c.015625 5.550781 2.628907 10.777344 7.0625 14.121094l20.390625 15.273437c4.863282 3.699219 7.492188 9.625 6.972656 15.714844zm0 0" fill="#285680"/><path d="m114.757812 70.621094v.351562c-1.457031-.25-2.933593-.371094-4.414062-.351562-17.054688.019531-30.878906 13.839844-30.894531 30.894531-.03125 4.039063.78125 8.035156 2.382812 11.742187-3.65625.992188-7.425781 1.496094-11.210937 1.5-24.378906 0-44.136719-19.761718-44.136719-44.136718 0-24.378906 19.757813-44.136719 44.136719-44.136719 24.375 0 44.136718 19.757813 44.136718 44.136719zm0 0" fill="#f3d55b"/><path d="m238.363281 101.515625c.03125 5.441406-1.433593 10.789063-4.238281 15.449219l-26.570312 14.65625c-2.976563.53125-5.769532 1.804687-8.121094 3.707031l-16.242188-2.914063h-72.828125c-12.511719-.011718-23.773437-7.578124-28.515625-19.15625-1.597656-3.707031-2.410156-7.703124-2.382812-11.742187.019531-17.054687 13.839844-30.875 30.898437-30.894531 1.476563-.019532 2.957031.101562 4.414063.351562.265625 0 .527344.089844.792968.089844 4.023438-20.757812 22.199219-35.753906 43.34375-35.753906 21.144532 0 39.320313 14.996094 43.34375 35.753906 1.722657-.28125 3.464844-.429688 5.207032-.441406 17.058594.019531 30.878906 13.839844 30.898437 30.894531zm0 0" fill="#ecf0f1"/><path d="m300.136719 61.792969-7.503907 67.882812c-.824218 7.03125-5.753906 12.894531-12.535156 14.921875l-70.972656 21.273438c-3.9375 1.199218-7.335938 3.726562-9.621094 7.148437l-28.511718 42.816407c-1.113282-.976563-2.363282-1.78125-3.710938-2.386719-2.316406-1.085938-4.851562-1.632813-7.414062-1.585938-15.976563 0-15.976563 17.652344-31.957032 17.652344-15.976562 0-15.976562-17.652344-31.953125-17.652344-15.980469 0-15.980469 17.652344-31.957031 17.652344-9.355469 0-13.242188-6-18.097656-11.03125l29.839844-37.253906c2.382812-3.023438 5.707031-5.167969 9.445312-6.089844l61.175781-15.273437c2.453125-.609376 4.746094-1.753907 6.707031-3.355469l30.101563-24.097657 7.414063-5.914062c2.351562-1.902344 5.148437-3.175781 8.125-3.707031l35.398437-5.828125 7.5-1.234375c3.613281-.628907 6.941406-2.355469 9.535156-4.945313zm0 0" fill="#fff"/><path d="m406.070312 150.070312-29.042968 6c-8.539063-3.371093-18.238282.347657-22.335938 8.5625l-6.355468 12.714844c-2.554688 5.027344-7.328126 8.5625-12.886719 9.53125l-27.277344-2.824218c-5.109375.839843-9.589844 3.871093-12.269531 8.296874l-37.605469 36.988282c-.820313.105468-1.648437.164062-2.472656.175781-15.980469 0-15.980469-17.652344-31.957031-17.652344-15.976563 0-15.976563 17.652344-32.042969 17.652344-11.125 0-14.476563-8.472656-20.832031-13.679687l10.855468-51.644532c2.285156-3.421875 5.683594-5.949218 9.621094-7.148437l70.976562-21.273438c6.78125-2.027343 11.707032-7.890625 12.535157-14.917969l25.15625-59.058593 70.621093 44.136719zm0 0" fill="#bdc3c7"/><path d="m474.042969 212.832031c-10.507813 3.621094-12.359375 16.683594-26.132813 16.683594-16.066406 0-16.066406-17.652344-32.042968-17.652344-15.976563 0-15.976563 17.652344-32.042969 17.652344-15.980469 0-15.980469-17.652344-31.957031-17.652344-15.976563 0-15.976563 17.652344-32.042969 17.652344-15.980469 0-15.980469-17.652344-31.957031-17.652344-15.183594 0-15.976563 15.800781-29.570313 17.476563l28.777344-45.8125c2.679687-4.429688 7.164062-7.460938 12.269531-8.300782l36.105469-6c5.558593-.972656 10.332031-4.503906 12.886719-9.535156l6.355468-12.710937c4.097656-8.214844 13.796875-11.933594 22.335938-8.5625l29.042968 11.652343 44.578126 14.828126c5.292968 1.765624 9.449218 5.917968 11.210937 11.210937zm0 0" fill="#e6e7e8"/></svg>