<svg id="Capa_1" enable-background="new 0 0 512 512" height="512" viewBox="0 0 512 512" width="512" xmlns="http://www.w3.org/2000/svg"><g><path d="m326.486 80.229c-.909-15.119-13.173-27.43-28.288-28.404-2.81-.181-5.543.023-8.154.561-6.302-12.406-19.176-20.912-34.044-20.912s-27.742 8.506-34.044 20.912c-2.611-.538-5.344-.742-8.154-.561-15.115.974-27.379 13.285-28.288 28.404-1.059 17.609 12.908 32.22 30.288 32.22h17.431c1.313 0 2.378 1.065 2.378 2.378v39.516c0 1.105.895 2 2 2h36.778c1.105 0 2-.895 2-2v-39.516c0-1.313 1.065-2.378 2.378-2.378h17.431c17.38 0 31.347-14.611 30.288-32.22z" fill="#ddebfd"/><g fill="#bed9fd"><path d="m326.486 80.229c-.909-15.119-13.173-27.43-28.288-28.404-2.81-.181-5.543.023-8.154.561-6.302-12.406-19.176-20.912-34.044-20.912-2.495 0-4.928.259-7.289.717 11.708 2.268 21.51 9.872 26.755 20.196 2.611-.538 5.344-.742 8.154-.561 15.115.974 27.379 13.285 28.288 28.404 1.059 17.609-12.908 32.22-30.288 32.22h14.578c17.38-.001 31.347-14.612 30.288-32.221z"/><path d="m261.811 114.827v39.516c0 1.105-.895 2-2 2h14.578c1.105 0 2-.895 2-2v-39.516c0-1.313 1.065-2.378 2.378-2.378h-14.578c-1.313 0-2.378 1.065-2.378 2.378z"/></g><path d="m223.108 193.239c-9.841 11.981-23.529 20.917-33.441 35.719-28.334 42.311-50.331 91.702-28.1 122.744h188.867c22.231-31.042.233-80.433-28.101-122.745-9.912-14.802-23.6-23.738-33.441-35.718-.9-1.095-64.884-1.096-65.784 0z" fill="#8c818f"/><path d="m288.135 190.631-27.747-4.112c1.418 0 2.758.625 3.658 1.72 37.97 46.226 88.55 121.562 58.542 163.464h27.845c22.231-31.042.233-80.433-28.101-122.745-8.36-2.987-32.779-38.327-34.197-38.327z" fill="#766d78"/><path d="m291.892 188.239c-.9-1.096-2.24-1.721-3.658-1.721h-64.467c-1.418 0-2.758.625-3.658 1.721-9.841 11.98-20.527 25.919-30.439 40.721 4.084 5.363 10.517 8.84 17.778 8.84 6.569 0 12.47-2.838 16.558-7.351 1.028-1.134 2.864-.977 3.594.368 5.465 10.077 16.131 16.921 28.4 16.921s22.935-6.844 28.4-16.921c.73-1.346 2.566-1.503 3.594-.368 4.088 4.513 9.989 7.351 16.558 7.351 7.261 0 13.694-3.478 17.777-8.841-9.911-14.802-20.597-28.74-30.437-40.72z" fill="#e27f86"/><path d="m260.388 186.518c1.418 0 2.758.625 3.658 1.72 11.675 14.213 24.539 31.18 35.889 49.079 1.49.314 3.034.482 4.618.482 7.261 0 13.694-3.478 17.777-8.841-8.299-12.392-17.395-24.56-26.635-36.041-.037-.046-3.804-4.679-3.804-4.679-.787-.959-1.912-1.557-3.131-1.692-.174-.019-.35-.029-.527-.029h-27.845z" fill="#df646e"/><path d="m0 368.316v107.21c0 2.761 2.239 5 5 5h502c2.761 0 5-2.239 5-5v-107.21c0-2.761-2.239-5-5-5h-502c-2.761 0-5 2.239-5 5z" fill="#80b6fc"/><path d="m376.52 309.39c-1.58 0-3.128.136-4.637.385-7.885-16.879-25.003-28.579-44.862-28.579-17.115 0-32.199 8.687-41.089 21.892-3.897-2.787-8.666-4.432-13.823-4.432-11.183 0-20.56 7.716-23.109 18.114-6.489-4.64-14.43-7.379-23.016-7.379-4.453 0-8.73.746-12.726 2.1-4.672-16.683-19.977-28.923-38.152-28.923-17.434 0-32.228 11.264-37.529 26.908-.693-.051-1.391-.086-2.098-.086-15.606 0-28.257 12.651-28.257 28.257 0 2.85.426 5.6 1.211 8.194h295.132c.785-2.594 1.211-5.344 1.211-8.194.001-15.606-12.65-28.257-28.256-28.257z" fill="#acd980"/><path d="m376.52 309.39c-1.58 0-3.128.136-4.637.385-7.885-16.879-25.003-28.579-44.862-28.579-4.014 0-7.911.495-11.648 1.397 14.577 3.768 26.709 14.876 33.261 29.738.368.835 1.224 1.346 2.13 1.23 1.028-.132 2.072-.201 3.131-.201 15.606 0 28.257 14.433 28.257 32.236 0 .082-.007.162-.008.245h21.421c.785-2.594 1.211-5.344 1.211-8.194.001-15.606-12.65-28.257-28.256-28.257z" fill="#8cc951"/><path d="m75.956 344.187-26.52 42.391c-1.25 1.998.186 4.591 2.543 4.591h408.041c2.357 0 3.793-2.593 2.543-4.591l-26.52-42.391c-.941-1.505-2.592-2.419-4.367-2.419h-351.353c-1.776 0-3.426.914-4.367 2.419z" fill="#ffeed2"/><path d="m66.243 360.155h379.514c.097 0 .192.014.288.019l-10.001-15.987c-.941-1.505-2.592-2.419-4.367-2.419h-351.354c-1.775 0-3.425.914-4.367 2.419l-10.001 15.987c.096-.006.191-.019.288-.019z" fill="#f4daa7"/><g fill="#f1cd88"><path d="m342.154 370.061c.87 2.78 3.435 4.562 6.202 4.562.643 0 1.297-.096 1.942-.298 3.426-1.072 5.335-4.718 4.263-8.144l-7.636-24.412h-13.621z"/><path d="m210.062 366.577c.34.053.678.079 1.012.079 3.147 0 5.913-2.29 6.414-5.497l3.033-19.391h-13.158l-2.719 17.383c-.554 3.546 1.872 6.871 5.418 7.426z"/><path d="m113.829 391.169 5.734-12.221c1.525-3.25.126-7.121-3.123-8.646-3.25-1.525-7.121-.126-8.646 3.123l-8.325 17.743h14.36z"/></g><g fill="#bed9fd"><path d="m218.895 70.495c-.865-6.439.282-12.692 2.952-18.128-2.578-.521-5.274-.721-8.045-.542-2.103.135-4.148.498-6.118 1.05-1.92 6.068-2.575 12.636-1.673 19.351.478 3.558 3.749 6.055 7.307 5.577s6.055-3.75 5.577-7.308z"/><path d="m290.425 52.321c-.126.024-.255.04-.381.065-2.067-4.068-4.851-7.705-8.169-10.772-7.643 3.402-13.918 9.324-17.81 17.015-1.621 3.203-.339 7.114 2.864 8.735 3.204 1.622 7.115.339 8.735-2.864 3.05-6.027 8.359-10.371 14.761-12.179z"/></g></g></svg>