<svg height="512pt" viewBox="0 -65 512 512" width="512pt" xmlns="http://www.w3.org/2000/svg"><path d="m339.929688 46.113281h-51.929688v40c0 4.417969 3.582031 8 8 8h43.929688c5.160156 0 8.234374-5.75 5.375-10.042969l-9.304688-13.957031 9.304688-13.957031c2.859374-4.292969-.214844-10.042969-5.375-10.042969zm0 0" fill="#ff8086"/><path d="m288 78.113281h16c13.253906 0 24-10.746093 24-24v-8h-40zm0 0" fill="#e5646e"/><path d="m256 14.113281v48h48c4.417969 0 8-3.582031 8-8v-32c0-4.417969-3.582031-8-8-8zm0 0" fill="#ff8086"/><path d="m256 118.113281c-4.421875 0-8-3.582031-8-8v-102.113281c0-4.417969 3.578125-8 8-8s8 3.582031 8 8v102.113281c0 4.417969-3.578125 8-8 8zm0 0" fill="#f6d190"/><path d="m380.824219 174.226562-100.824219 199.886719 216 1.890625-100.875-201.753906c-2.941406-5.886719-11.335938-5.898438-14.300781-.023438zm0 0" fill="#b3e59f"/><path d="m100.886719 222.230469-76.886719 153.773437 168-1.890625-76.820312-151.914062c-2.96875-5.867188-11.355469-5.847657-14.292969.03125zm0 0" fill="#b3e59f"/><path d="m504 366.113281h-93.167969c-9.089843 0-17.398437-5.136719-21.464843-13.265625l-126.210938-252.421875c-2.949219-5.898437-11.363281-5.898437-14.3125 0l-126.210938 252.421875c-4.066406 8.128906-12.375 13.265625-21.464843 13.265625h-93.167969c-4.421875 0-8 3.582031-8 8s3.578125 8 8 8h496c4.421875 0 8-3.582031 8-8s-3.578125-8-8-8zm0 0" fill="#95d6a4"/><path d="m263.578125 101.269531-.421875-.84375c-2.949219-5.898437-11.363281-5.898437-14.3125 0l-126.210938 252.421875c-4.066406 8.128906-12.375 13.265625-21.46875 13.265625h-93.164062c-4.421875 0-8 3.582031-8 8s3.578125 8 8 8h496c4.421875 0 8-3.582031 8-8s-3.578125-8-8-8h-270.203125c-21.070313 0-36.390625-20.007812-30.890625-40.347656zm0 0" fill="#78c2a4"/><path d="m229 232.003906c9.957031 32.082032 44.238281 26.363282 47.75-8.5 3.101562-30.785156 18.121094-38.835937 27.527344-40.839844l-41.121094-82.238281c-2.949219-5.898437-11.363281-5.898437-14.3125 0l-56.238281 112.476563c12.582031-4.621094 28.929687-4.953125 36.394531 19.101562zm0 0" fill="#edf4ff"/><path d="m228.585938 230.738281 34.992187-129.464843-.421875-.847657c-2.949219-5.898437-11.363281-5.898437-14.3125 0l-56.238281 112.476563c12.359375-4.539063 28.34375-4.941406 35.980469 17.835937zm0 0" fill="#dbeaff"/></svg>