<svg id="Layer_1" enable-background="new 0 0 512.002 512.002" height="512" viewBox="0 0 512.002 512.002" width="512" xmlns="http://www.w3.org/2000/svg"><g><g><path d="m46.95 233.832c-.923 0-1.845-.085-2.755-.255-25.608-4.784-44.195-27.187-44.195-53.27 0-25.397 17.559-46.77 41.177-52.613 3.889-27.054 24.969-48.629 51.776-53.268 8.092-29.408 35.242-50.925 66.738-50.925 10.838 0 21.458 2.552 31.018 7.345 15.882-19.33 39.715-30.845 65.291-30.845s49.409 11.514 65.291 30.844c9.56-4.793 20.179-7.344 31.018-7.344 31.463 0 58.591 21.476 66.714 50.837 20.079 3.109 38.648 14.678 49.18 31.216 11.025 17.312 12.051 37.658 2.89 57.291-2.123 4.548-6.379 7.732-11.341 8.486l-410.55 62.331c-.747.113-1.5.17-2.252.17z" fill="#bee75e"/></g><g><path d="m497.002 512.001h-482.002c-8.284 0-15-6.716-15-15v-232.085c0-7.17 5.074-13.337 12.109-14.719l482.002-94.662c4.399-.861 8.957.285 12.42 3.135s5.47 7.1 5.47 11.584v326.747c.001 8.284-6.715 15-14.999 15z" fill="#ffde46"/></g><path d="m506.532 158.67c-3.463-2.85-8.021-3.996-12.42-3.135l-238.112 46.764v309.702h241.002c8.284 0 15-6.716 15-15v-326.747c0-4.484-2.007-8.734-5.47-11.584z" fill="#ffcd00"/><path d="m468.203 105.554c-10.532-16.538-29.101-28.106-49.18-31.216-8.124-29.361-35.251-50.837-66.714-50.837-10.839 0-21.458 2.551-31.018 7.344-15.883-19.33-39.715-30.844-65.291-30.844v202.264l203.751-30.934c4.962-.754 9.219-3.938 11.341-8.486 9.162-19.633 8.136-39.98-2.889-57.291z" fill="#00cb75"/><g><path d="m403.622 440.001c-62.95 0-122.331-7.537-167.203-21.222-52.671-16.063-71.373-36.332-76.466-53.212-44.431-9.367-81.827-21.922-108.631-36.509-34.055-18.533-51.322-40.113-51.322-64.142 0-35.562 38.349-66.053 110.902-88.181 66.044-20.142 153.575-31.234 246.467-31.234 49.299 0 96.959 3.092 141.659 9.188 7.432 1.014 12.973 7.361 12.973 14.862v249.433c0 7.506-5.548 13.856-12.986 14.864-30.138 4.083-62.232 6.153-95.393 6.153zm93.378-21.017h.01z" fill="#bcfbff"/></g><path d="m499.027 154.689c-44.699-6.097-92.36-9.188-141.659-9.188-34.826 0-68.899 1.559-101.369 4.57v274.062c41.917 10.28 93.443 15.868 147.622 15.868 33.161 0 65.255-2.07 95.392-6.152 7.438-1.008 12.986-7.358 12.986-14.864v-249.433c.001-7.501-5.54-13.849-12.972-14.863z" fill="#7dd5f4"/></g></svg>